<svg xmlns="http://www.w3.org/2000/svg" viewBox="0 0 21.42 17.73"><defs><style>.cls-1{fill:#32b6ce;}.cls-2{fill:#2db4cd;}</style></defs><title>Asset 2</title><g id="Layer_2" data-name="Layer 2"><g id="Layer_1-2" data-name="Layer 1"><path class="cls-1" d="M10.9,7c2.67,0,5.34,0,8,0,1.22,0,2.42.28,2.5,1.78s-1.11,1.92-2.34,1.93c-5.51,0-11,0-16.52,0C1.33,10.7.09,10.43.06,8.92,0,7.06,1.55,7,2.89,7c2.67-.05,5.34,0,8,0Z"/><path class="cls-1" d="M10.56,17.68c-2.83,0-5.66,0-8.49,0a1.8,1.8,0,0,1-2-1.79A1.72,1.72,0,0,1,2,14q8.74-.09,17.48,0a1.77,1.77,0,0,1,2,1.79c0,1.57-1.14,1.91-2.37,1.94-2.83.06-5.66,0-8.5,0Z"/><path class="cls-2" d="M1.34,3.75C.62,2.92-.2,2.11.46.86l20.71,0c.82,3.42-1.75,2.85-3.55,2.88C12.19,3.8,6.77,3.75,1.34,3.75Z"/><path class="cls-1" d="M10.84,0c2.67,0,5.34,0,8,0,1.22,0,2.42.28,2.5,1.78S20.24,3.75,19,3.76c-5.51,0-11,0-16.52,0C1.27,3.76,0,3.49,0,2,0,.12,1.49.06,2.83,0c2.67-.05,5.34,0,8,0Z"/></g></g></svg>